<svg width="160" height="36" viewBox="0 0 160 36" fill="none" xmlns="http://www.w3.org/2000/svg">
<path d="M27.4297 25.1074L31.3461 11.3168C31.4612 10.9097 31.4102 10.4735 31.2041 10.104C30.9981 9.73455 30.6539 9.46187 30.2471 9.34582L17.0129 5.58691L14.4414 14.466L15.1029 15.1275C16.1338 14.0981 17.9694 12.2634 19.0932 11.1401C19.3669 10.8661 19.7213 10.6872 20.1042 10.6296C20.4871 10.572 20.8784 10.6387 21.2207 10.8199C21.5629 11.0011 21.8379 11.2873 22.0055 11.6365C22.173 11.9856 22.2241 12.3792 22.1514 12.7596C22.2217 12.7513 22.2924 12.747 22.3632 12.7469C22.7066 12.7469 23.0428 12.8445 23.3328 13.0283C23.6227 13.2121 23.8545 13.4746 24.0009 13.7851C24.1474 14.0956 24.2025 14.4414 24.16 14.782C24.1174 15.1227 23.9789 15.4443 23.7605 15.7092C24.0845 15.7483 24.3919 15.8743 24.6501 16.0739C24.9083 16.2734 25.1078 16.5392 25.2273 16.8428C25.3468 17.1465 25.382 17.4769 25.329 17.7989C25.2761 18.121 25.137 18.4227 24.9265 18.6721C25.2633 18.7135 25.5816 18.8486 25.8452 19.0622C26.1089 19.2757 26.3072 19.5589 26.4177 19.8797C26.5281 20.2005 26.5462 20.5458 26.4699 20.8764C26.3936 21.2069 26.2259 21.5094 25.986 21.7493L22.3982 25.3371L25.459 26.2063C25.8661 26.3214 26.3021 26.2703 26.6716 26.0642C27.041 25.8582 27.3137 25.5141 27.4297 25.1074Z" fill="#00BDD3"/>
<path d="M25.8124 20.4691C25.8123 20.25 25.7474 20.0359 25.6257 19.8538C25.504 19.6717 25.331 19.5297 25.1287 19.4459C24.9263 19.3621 24.7036 19.3402 24.4888 19.3829C24.274 19.4256 24.0766 19.5311 23.9217 19.6859L23.0821 20.5255L22.2426 21.365C22.2336 21.3732 22.2242 21.3808 22.2145 21.3879C22.1446 21.4435 22.0561 21.4704 21.967 21.4631C21.878 21.4557 21.7951 21.4147 21.7352 21.3483C21.6754 21.282 21.6431 21.1953 21.645 21.106C21.6468 21.0167 21.6827 20.9314 21.7452 20.8676L24.3247 18.2884C24.5324 18.0807 24.6491 17.799 24.649 17.5053C24.649 17.2115 24.5324 16.9298 24.3247 16.7221C24.117 16.5144 23.8353 16.3978 23.5415 16.3978C23.2478 16.3978 22.9661 16.5145 22.7584 16.7222L20.1791 19.3016C20.1623 19.3185 20.1438 19.3336 20.1239 19.3467C20.0693 19.383 20.0054 19.403 19.9398 19.4045C19.8742 19.406 19.8095 19.3889 19.7532 19.3551C19.7272 19.3404 19.7032 19.3224 19.6819 19.3016C19.616 19.2357 19.5789 19.1462 19.5789 19.053C19.5789 18.9598 19.616 18.8703 19.6819 18.8044L23.1455 15.3407C23.3533 15.1331 23.47 14.8514 23.47 14.5577C23.47 14.2639 23.3534 13.9822 23.1457 13.7745C22.938 13.5668 22.6564 13.4501 22.3626 13.45C22.0689 13.45 21.7872 13.5666 21.5795 13.7743L18.1157 17.2381C18.0609 17.2934 17.9892 17.3287 17.9119 17.3384C17.8347 17.3481 17.7565 17.3317 17.6897 17.2916C17.6638 17.2769 17.6398 17.259 17.6185 17.2381C17.5526 17.1722 17.5155 17.0828 17.5155 16.9895C17.5155 16.8963 17.5526 16.8069 17.6185 16.7409L21.0821 13.2773L21.0828 13.2767L21.1558 13.2036C21.2587 13.1008 21.3403 12.9787 21.3959 12.8443C21.4516 12.7099 21.4802 12.5659 21.4802 12.4205C21.4802 12.275 21.4516 12.131 21.3959 11.9966C21.3402 11.8623 21.2587 11.7402 21.1558 11.6374C21.053 11.5345 20.9309 11.4529 20.7965 11.3973C20.6621 11.3416 20.5181 11.313 20.3727 11.313C20.2272 11.313 20.0832 11.3416 19.9489 11.3973C19.8145 11.453 19.6924 11.5345 19.5896 11.6374C17.8258 13.4004 14.861 16.3637 14.8198 16.4015C14.3948 16.7842 13.8857 17.0615 13.3336 17.2109C12.7815 17.3602 12.202 17.3774 11.6421 17.2611C11.5961 17.2528 11.5522 17.2353 11.513 17.2098C11.4738 17.1843 11.4401 17.1512 11.4139 17.1125C11.3876 17.0739 11.3694 17.0303 11.3601 16.9845C11.3509 16.9386 11.351 16.8914 11.3602 16.8456C11.3695 16.7997 11.3878 16.7562 11.4141 16.7176C11.4404 16.6789 11.4741 16.6459 11.5133 16.6204C11.5525 16.5949 11.5964 16.5775 11.6424 16.5692C11.6884 16.5609 11.7357 16.5619 11.7813 16.5721C12.2319 16.6664 12.6984 16.6535 13.1431 16.5343C13.5878 16.4152 13.9983 16.1931 14.3414 15.8862C14.3612 15.8668 14.4549 15.7737 14.6044 15.6244L13.035 14.055C12.7353 13.7559 12.3291 13.5879 11.9057 13.5879C11.4823 13.5879 11.0761 13.7559 10.7764 14.055L8.72748 16.1039C8.52585 16.3044 8.36601 16.543 8.25719 16.8057C8.14838 17.0684 8.09275 17.3501 8.09354 17.6345V18.7247C8.09828 20.3989 7.47775 22.0146 6.35352 23.2552L14.1399 31.0415L18.7076 27.8564C19.095 27.5861 19.4578 27.2822 19.7919 26.9483L25.4879 21.2523C25.5911 21.1497 25.6729 21.0276 25.7286 20.8932C25.7843 20.7587 25.8128 20.6146 25.8124 20.4691Z" fill="black"/>
<path d="M2.54688 25.3042L4.97655 22.8745L14.8433 32.7413L12.4136 35.1709L2.54688 25.3042Z" fill="black"/>
<path d="M13.5337 13.5578L13.8744 13.8984L16.3372 5.39492L14.579 4.8957C14.1719 4.78062 13.7358 4.8317 13.3663 5.03774C12.9968 5.24377 12.7241 5.58794 12.6081 5.99475L10.418 13.432C10.8585 13.0584 11.4232 12.864 12.0003 12.8873C12.5774 12.9106 13.1247 13.1499 13.5337 13.5578Z" fill="#00BDD3"/>
<path d="M11.2619 4.87966C11.3384 4.87962 11.4127 4.85464 11.4737 4.80852C11.5347 4.76239 11.579 4.69764 11.5999 4.62408C11.7159 4.21725 11.9885 3.87305 12.358 3.66698C12.7275 3.46092 13.1636 3.40981 13.5707 3.52488C13.6151 3.5375 13.6616 3.54124 13.7074 3.53589C13.7533 3.53055 13.7976 3.51623 13.838 3.49374C13.8783 3.47125 13.9138 3.44105 13.9424 3.40484C13.9711 3.36863 13.9923 3.32714 14.0049 3.28273C14.0175 3.23831 14.0213 3.19185 14.0159 3.14599C14.0106 3.10013 13.9963 3.05577 13.9738 3.01545C13.9513 2.97513 13.9211 2.93963 13.8849 2.91098C13.8487 2.88233 13.8072 2.86109 13.7628 2.84848C13.1763 2.68274 12.5481 2.75635 12.0158 3.05316C11.4836 3.34997 11.0908 3.84575 10.9236 4.43177C10.9087 4.48409 10.9062 4.53914 10.9162 4.5926C10.9262 4.64606 10.9485 4.69647 10.9812 4.73986C11.014 4.78325 11.0565 4.81844 11.1052 4.84267C11.1539 4.86689 11.2075 4.87948 11.2619 4.87945V4.87966Z" fill="black"/>
<path d="M9.26725 4.45884C9.31166 4.47152 9.35814 4.47532 9.40401 4.47001C9.44989 4.4647 9.49427 4.45039 9.53461 4.42791C9.57495 4.40542 9.61046 4.37519 9.6391 4.33896C9.66773 4.30272 9.68894 4.26119 9.7015 4.21675C9.83405 3.74997 10.0572 3.31386 10.3583 2.93334C10.6594 2.55282 11.0325 2.23533 11.4564 1.99902C11.8802 1.7627 12.3464 1.61217 12.8283 1.55604C13.3103 1.49991 13.7986 1.53926 14.2654 1.67186C14.3551 1.69733 14.4513 1.68613 14.5327 1.64072C14.6141 1.59531 14.6742 1.5194 14.6997 1.4297C14.7251 1.34001 14.7139 1.24386 14.6685 1.16243C14.6231 1.08099 14.5472 1.02093 14.4575 0.995454C13.3354 0.676781 12.1327 0.816889 11.114 1.38496C10.0952 1.95303 9.34381 2.90253 9.0251 4.02459C9.01248 4.069 9.00874 4.11546 9.01408 4.16132C9.01942 4.20718 9.03375 4.25154 9.05623 4.29187C9.07872 4.33219 9.10893 4.36769 9.14514 4.39634C9.18134 4.42499 9.22284 4.44623 9.26725 4.45884Z" fill="black"/>
<path d="M28.5158 26.8571C28.3998 27.2639 28.1272 27.6082 27.7577 27.8142C27.3882 28.0203 26.952 28.0714 26.5449 27.9563C26.5003 27.9432 26.4536 27.939 26.4074 27.944C26.3612 27.949 26.3164 27.9631 26.2757 27.9855C26.235 28.008 26.1991 28.0382 26.1702 28.0746C26.1413 28.111 26.1198 28.1527 26.1071 28.1974C26.0944 28.2422 26.0907 28.2889 26.0962 28.3351C26.1017 28.3812 26.1163 28.4258 26.1392 28.4663C26.162 28.5068 26.1927 28.5423 26.2293 28.5709C26.266 28.5994 26.308 28.6204 26.3528 28.6327C26.6432 28.7153 26.9471 28.7399 27.247 28.705C27.5469 28.6702 27.837 28.5766 28.1007 28.4295C28.3644 28.2824 28.5965 28.0849 28.7838 27.848C28.9711 27.6112 29.1099 27.3398 29.1922 27.0493C29.2053 27.0047 29.2095 26.958 29.2045 26.9118C29.1995 26.8656 29.1854 26.8208 29.163 26.7801C29.1405 26.7394 29.1103 26.7035 29.0739 26.6746C29.0375 26.6457 28.9958 26.6242 28.9511 26.6115C28.9064 26.5988 28.8596 26.5951 28.8134 26.6006C28.7673 26.6061 28.7227 26.6207 28.6822 26.6436C28.6417 26.6664 28.6062 26.6971 28.5776 26.7337C28.5491 26.7704 28.5281 26.8124 28.5158 26.8572V26.8571Z" fill="black"/>
<path d="M31.2048 26.6818C31.1604 26.6692 31.1139 26.6655 31.068 26.6708C31.0222 26.6762 30.9778 26.6905 30.9375 26.713C30.8972 26.7355 30.8617 26.7657 30.833 26.8019C30.8044 26.8381 30.7831 26.8796 30.7705 26.924C30.6172 27.4639 30.359 27.9684 30.0107 28.4086C29.6624 28.8487 29.2308 29.216 28.7406 29.4893C28.2503 29.7627 27.711 29.9368 27.1535 30.0018C26.596 30.0667 26.0311 30.0212 25.4912 29.8678C25.4467 29.8548 25.4 29.8508 25.3539 29.8559C25.3078 29.861 25.2631 29.8751 25.2225 29.8976C25.1819 29.92 25.1462 29.9503 25.1173 29.9866C25.0885 30.0229 25.0671 30.0646 25.0544 30.1092C25.0417 30.1538 25.038 30.2005 25.0434 30.2466C25.0489 30.2926 25.0634 30.3372 25.0861 30.3776C25.1089 30.418 25.1394 30.4536 25.1759 30.4822C25.2125 30.5108 25.2543 30.5318 25.299 30.5442C25.7437 30.671 26.2039 30.7355 26.6663 30.7358C27.748 30.7329 28.7994 30.3782 29.6618 29.7252C30.5242 29.0723 31.1508 28.1565 31.4469 27.1161C31.4595 27.0717 31.4633 27.0252 31.4579 26.9793C31.4526 26.9335 31.4383 26.8891 31.4158 26.8488C31.3933 26.8085 31.3631 26.773 31.3269 26.7443C31.2907 26.7157 31.2492 26.6944 31.2048 26.6818Z" fill="black"/>
<path d="M33.6987 22.0447C33.3549 21.9291 33.0426 21.7355 32.7862 21.4789C32.5299 21.2224 32.3364 20.91 32.221 20.5662C32.1977 20.4962 32.1529 20.4353 32.093 20.3921C32.0332 20.3489 31.9612 20.3257 31.8874 20.3257C31.8136 20.3257 31.7417 20.3489 31.6818 20.3921C31.6219 20.4353 31.5772 20.4962 31.5539 20.5662C31.4385 20.91 31.245 21.2225 30.9887 21.479C30.7323 21.7356 30.42 21.9293 30.0762 22.0449C30.0063 22.0683 29.9454 22.1131 29.9023 22.1729C29.8591 22.2328 29.8359 22.3047 29.8359 22.3784C29.8359 22.4522 29.8591 22.5241 29.9023 22.584C29.9454 22.6438 30.0063 22.6886 30.0762 22.7119C30.42 22.8276 30.7323 23.0213 30.9887 23.2778C31.245 23.5344 31.4385 23.8468 31.5539 24.1907C31.5772 24.2607 31.6219 24.3216 31.6818 24.3648C31.7417 24.4079 31.8136 24.4312 31.8874 24.4312C31.9612 24.4312 32.0332 24.4079 32.093 24.3648C32.1529 24.3216 32.1977 24.2607 32.221 24.1907C32.3364 23.8468 32.5298 23.5344 32.7862 23.2778C33.0425 23.0213 33.3548 22.8276 33.6986 22.7119C33.7686 22.6886 33.8294 22.6438 33.8726 22.584C33.9157 22.5241 33.9389 22.4522 33.9389 22.3784C33.9389 22.3047 33.9157 22.2328 33.8726 22.1729C33.8294 22.1131 33.7686 22.0683 33.6986 22.0449L33.6987 22.0447Z" fill="black"/>
<path d="M48.488 26.336C45.96 26.336 43.872 25.496 42.224 23.816C40.576 22.136 39.752 20.064 39.752 17.6C39.752 15.12 40.576 13.048 42.224 11.384C43.872 9.704 45.96 8.864 48.488 8.864C50.008 8.864 51.408 9.224 52.688 9.944C53.984 10.648 54.992 11.608 55.712 12.824L52.856 14.48C52.44 13.728 51.848 13.144 51.08 12.728C50.312 12.296 49.448 12.08 48.488 12.08C46.856 12.08 45.536 12.592 44.528 13.616C43.536 14.64 43.04 15.968 43.04 17.6C43.04 19.216 43.536 20.536 44.528 21.56C45.536 22.584 46.856 23.096 48.488 23.096C49.448 23.096 50.312 22.888 51.08 22.472C51.864 22.04 52.456 21.456 52.856 20.72L55.712 22.376C54.992 23.592 53.992 24.56 52.712 25.28C51.432 25.984 50.024 26.336 48.488 26.336ZM58.7501 26V8.48H61.8461V26H58.7501ZM68.2558 21.272C68.6718 22.776 69.7998 23.528 71.6398 23.528C72.8238 23.528 73.7198 23.128 74.3278 22.328L76.8238 23.768C75.6398 25.48 73.8958 26.336 71.5918 26.336C69.6078 26.336 68.0158 25.736 66.8158 24.536C65.6158 23.336 65.0158 21.824 65.0158 20C65.0158 18.192 65.6078 16.688 66.7918 15.488C67.9758 14.272 69.4958 13.664 71.3518 13.664C73.1118 13.664 74.5598 14.272 75.6958 15.488C76.8478 16.704 77.4238 18.208 77.4238 20C77.4238 20.4 77.3838 20.824 77.3038 21.272H68.2558ZM68.2078 18.872H74.3278C74.1518 18.056 73.7838 17.448 73.2238 17.048C72.6798 16.648 72.0558 16.448 71.3518 16.448C70.5198 16.448 69.8318 16.664 69.2878 17.096C68.7438 17.512 68.3838 18.104 68.2078 18.872ZM89.5713 14H92.6673V26H89.5713V24.584C88.6433 25.752 87.3393 26.336 85.6593 26.336C84.0593 26.336 82.6833 25.728 81.5313 24.512C80.3953 23.28 79.8273 21.776 79.8273 20C79.8273 18.224 80.3953 16.728 81.5313 15.512C82.6833 14.28 84.0593 13.664 85.6593 13.664C87.3393 13.664 88.6433 14.248 89.5713 15.416V14ZM83.8593 22.448C84.4833 23.072 85.2753 23.384 86.2353 23.384C87.1953 23.384 87.9873 23.072 88.6113 22.448C89.2513 21.808 89.5713 20.992 89.5713 20C89.5713 19.008 89.2513 18.2 88.6113 17.576C87.9873 16.936 87.1953 16.616 86.2353 16.616C85.2753 16.616 84.4833 16.936 83.8593 17.576C83.2353 18.2 82.9233 19.008 82.9233 20C82.9233 20.992 83.2353 21.808 83.8593 22.448ZM103.107 13.664C104.419 13.664 105.499 14.104 106.347 14.984C107.211 15.864 107.643 17.08 107.643 18.632V26H104.547V19.016C104.547 18.216 104.331 17.608 103.899 17.192C103.467 16.76 102.891 16.544 102.171 16.544C101.371 16.544 100.731 16.792 100.251 17.288C99.7707 17.784 99.5307 18.528 99.5307 19.52V26H96.4347V14H99.5307V15.344C100.283 14.224 101.475 13.664 103.107 13.664Z" fill="black"/>
<path d="M125.766 23.744C124.086 25.424 122.038 26.264 119.622 26.264C117.206 26.264 115.158 25.424 113.478 23.744C111.798 22.048 110.958 20 110.958 17.6C110.958 15.2 111.798 13.16 113.478 11.48C115.158 9.784 117.206 8.936 119.622 8.936C122.038 8.936 124.086 9.784 125.766 11.48C127.446 13.16 128.286 15.2 128.286 17.6C128.286 20 127.446 22.048 125.766 23.744ZM114.366 22.88C115.806 24.32 117.558 25.04 119.622 25.04C121.686 25.04 123.43 24.32 124.854 22.88C126.294 21.424 127.014 19.664 127.014 17.6C127.014 15.536 126.294 13.784 124.854 12.344C123.43 10.888 121.686 10.16 119.622 10.16C117.558 10.16 115.806 10.888 114.366 12.344C112.942 13.784 112.23 15.536 112.23 17.6C112.23 19.664 112.942 21.424 114.366 22.88ZM137.728 13.736C139.152 13.736 140.28 14.176 141.112 15.056C141.96 15.92 142.384 17.08 142.384 18.536V26H141.16V18.536C141.16 17.416 140.848 16.528 140.224 15.872C139.616 15.216 138.752 14.888 137.632 14.888C136.4 14.888 135.392 15.296 134.608 16.112C133.824 16.928 133.432 18.112 133.432 19.664V26H132.232V14H133.432V16.28C134.296 14.584 135.728 13.736 137.728 13.736ZM152.139 13.736C153.899 13.736 155.323 14.36 156.411 15.608C157.515 16.856 158.067 18.336 158.067 20.048C158.067 20.112 158.059 20.208 158.043 20.336C158.043 20.464 158.043 20.56 158.043 20.624H147.171C147.315 21.968 147.851 23.056 148.779 23.888C149.723 24.704 150.883 25.112 152.259 25.112C153.219 25.112 154.059 24.912 154.779 24.512C155.499 24.112 156.043 23.584 156.411 22.928L157.467 23.552C156.971 24.384 156.267 25.048 155.355 25.544C154.443 26.024 153.403 26.264 152.235 26.264C150.395 26.264 148.883 25.68 147.699 24.512C146.515 23.328 145.923 21.824 145.923 20C145.923 18.208 146.499 16.72 147.651 15.536C148.819 14.336 150.315 13.736 152.139 13.736ZM152.139 14.888C150.779 14.888 149.643 15.312 148.731 16.16C147.819 17.008 147.299 18.104 147.171 19.448H156.819C156.691 18.024 156.179 16.912 155.283 16.112C154.403 15.296 153.355 14.888 152.139 14.888Z" fill="#00BDD3"/>
</svg>
