<?xml version="1.0" encoding="utf-8"?><svg viewBox="0 0 108 52" xmlns="http://www.w3.org/2000/svg" xmlns:xlink="http://www.w3.org/1999/xlink"><style>:root>svg{display:none}:root>svg:target{display:block}</style><svg fill="none" viewBox="0 0 90 46" id="01" xmlns="http://www.w3.org/2000/svg"><mask id="aa" maskUnits="userSpaceOnUse" x="-1" y="-1" width="92" height="73" fill="#000"><path fill="#fff" d="M-1-1h92v73H-1z"/><path d="M27.24 70.344c-8.384 0-14.976-3.168-19.776-9.504C2.728 54.44.36 45.96.36 35.4s2.368-19.008 7.104-25.344c4.8-6.4 11.392-9.6 19.776-9.6 8.448 0 15.04 3.2 19.776 9.6C51.752 16.392 54.12 24.84 54.12 35.4s-2.368 19.04-7.104 25.44c-4.736 6.336-11.328 9.504-19.776 9.504ZM17.064 51.816c2.304 3.712 5.696 5.568 10.176 5.568s7.872-1.888 10.176-5.664c2.368-3.776 3.552-9.216 3.552-16.32 0-7.168-1.184-12.64-3.552-16.416-2.304-3.776-5.696-5.664-10.176-5.664s-7.872 1.888-10.176 5.664c-2.304 3.776-3.456 9.248-3.456 16.416 0 7.168 1.152 12.64 3.456 16.416ZM78.154 1.8h11.52V69H76.426V15.816l-12.672 3.552L60.49 8.04 78.154 1.8Z"/></mask><path d="m7.464 60.84-.804.595.007.009.797-.604Zm0-50.784-.8-.6-.001.001.801.599Zm39.552 0-.804.595.003.004.801-.599Zm0 50.784.801.599.003-.004-.804-.595Zm-29.952-9.024-.854.52.004.007.85-.527Zm20.352-.096-.847-.531-.007.01.854.521Zm0-32.736-.854.52.007.011.847-.531ZM27.24 69.344c-8.09 0-14.38-3.037-18.979-9.108l-1.594 1.208c5 6.6 11.896 9.9 20.573 9.9v-2ZM8.268 60.245C3.695 54.065 1.36 45.815 1.36 35.4h-2c0 10.705 2.4 19.414 7.3 26.035l1.608-1.19ZM1.36 35.4c0-10.416 2.335-18.632 6.905-24.745L6.663 9.457C1.761 16.016-.64 24.696-.64 35.4h2Zm6.904-24.744c4.6-6.134 10.89-9.2 18.976-9.2v-2c-8.681 0-15.577 3.334-20.576 10l1.6 1.2Zm18.976-9.2c8.154 0 14.438 3.067 18.972 9.195l1.608-1.19C42.882 2.79 35.982-.544 27.24-.544v2Zm18.975 9.199c4.57 6.113 6.905 14.33 6.905 24.745h2c0-10.704-2.4-19.384-7.303-25.943l-1.602 1.198ZM53.12 35.4c0 10.415-2.335 18.666-6.908 24.845l1.608 1.19c4.9-6.62 7.3-15.33 7.3-26.035h-2Zm-6.905 24.841c-4.533 6.064-10.817 9.103-18.975 9.103v2c8.738 0 15.638-3.297 20.577-9.905l-1.602-1.198Zm-30-7.898c2.491 4.015 6.21 6.041 11.025 6.041v-2c-4.145 0-7.21-1.686-9.326-5.095l-1.7 1.054Zm11.025 6.041c4.823 0 8.541-2.065 11.03-6.143l-1.708-1.042c-2.12 3.474-5.185 5.185-9.322 5.185v2Zm11.023-6.133c2.51-4.003 3.705-9.66 3.705-16.851h-2c0 7.018-1.174 12.24-3.4 15.789l1.695 1.062ZM41.968 35.4c0-7.252-1.193-12.943-3.705-16.947l-1.694 1.062c2.224 3.548 3.399 8.801 3.399 15.885h2ZM38.27 18.463c-2.489-4.078-6.207-6.143-11.03-6.143v2c4.137 0 7.203 1.711 9.322 5.185l1.708-1.042ZM27.24 12.32c-4.823 0-8.541 2.065-11.03 6.143l1.708 1.042c2.12-3.474 5.185-5.185 9.322-5.185v-2Zm-11.03 6.143c-2.442 4.002-3.602 9.688-3.602 16.937h2c0-7.087 1.144-12.345 3.31-15.895l-1.708-1.042ZM12.608 35.4c0 7.249 1.16 12.935 3.602 16.937l1.708-1.042c-2.166-3.55-3.31-8.808-3.31-15.895h-2ZM78.154 1.8v-1h-.172l-.161.057.333.943Zm11.52 0h1v-1h-1v1Zm0 67.2v1h1v-1h-1Zm-13.248 0h-1v1h1v-1Zm0-53.184h1v-1.319l-1.27.356.27.963Zm-12.672 3.552-.961.277.275.954.956-.268-.27-.963ZM60.49 8.04l-.333-.943-.89.314.262.906.96-.277ZM78.154 2.8h11.52v-2h-11.52v2Zm10.52-1V69h2V1.8h-2Zm1 66.2H76.426v2h13.248v-2Zm-12.248 1V15.816h-2V69h2Zm-1.27-54.147-12.672 3.552.54 1.926 12.672-3.552-.54-1.926Zm-11.441 4.238L61.45 7.763l-1.922.554 3.264 11.328 1.922-.554ZM60.823 8.983l17.664-6.24L77.82.857l-17.664 6.24.666 1.886Z" fill="#BAD6EE" mask="url(#aa)"/></svg><svg fill="none" viewBox="0 0 108 46" id="02" xmlns="http://www.w3.org/2000/svg"><mask id="ba" maskUnits="userSpaceOnUse" x="-1" y="-1" width="110" height="73" fill="#000"><path fill="#fff" d="M-1-1h110v73H-1z"/><path d="M27.24 70.344c-8.384 0-14.976-3.168-19.776-9.504C2.728 54.44.36 45.96.36 35.4s2.368-19.008 7.104-25.344c4.8-6.4 11.392-9.6 19.776-9.6 8.448 0 15.04 3.2 19.776 9.6C51.752 16.392 54.12 24.84 54.12 35.4s-2.368 19.04-7.104 25.44c-4.736 6.336-11.328 9.504-19.776 9.504ZM17.064 51.816c2.304 3.712 5.696 5.568 10.176 5.568s7.872-1.888 10.176-5.664c2.368-3.776 3.552-9.216 3.552-16.32 0-7.168-1.184-12.64-3.552-16.416-2.304-3.776-5.696-5.664-10.176-5.664s-7.872 1.888-10.176 5.664c-2.304 3.776-3.456 9.248-3.456 16.416 0 7.168 1.152 12.64 3.456 16.416ZM62.214 69v-9.888l22.943-23.616c5.12-5.376 7.68-9.856 7.68-13.44 0-2.624-.832-4.736-2.496-6.336-1.6-1.6-3.68-2.4-6.24-2.4-5.056 0-8.8 2.624-11.232 7.872l-11.136-6.528c2.112-4.608 5.152-8.128 9.12-10.56C74.821 1.672 79.173.456 83.91.456c6.08 0 11.296 1.92 15.648 5.76 4.352 3.776 6.528 8.896 6.528 15.36 0 6.976-3.68 14.144-11.04 21.504L81.893 56.232h25.248V69H62.213Z"/></mask><path d="m7.464 60.84-.804.595.007.009.797-.604Zm0-50.784-.8-.6-.001.001.801.599Zm39.552 0-.804.595.003.004.801-.599Zm0 50.784.801.599.003-.004-.804-.595Zm-29.952-9.024-.854.52.004.007.85-.527Zm20.352-.096-.847-.531-.007.01.854.521Zm0-32.736-.854.52.007.011.847-.531ZM27.24 69.344c-8.09 0-14.38-3.037-18.979-9.108l-1.594 1.208c5 6.6 11.896 9.9 20.573 9.9v-2ZM8.268 60.245C3.695 54.065 1.36 45.815 1.36 35.4h-2c0 10.705 2.4 19.414 7.3 26.035l1.608-1.19ZM1.36 35.4c0-10.416 2.335-18.632 6.905-24.745L6.663 9.457C1.761 16.016-.64 24.696-.64 35.4h2Zm6.904-24.744c4.6-6.134 10.89-9.2 18.976-9.2v-2c-8.681 0-15.577 3.334-20.576 10l1.6 1.2Zm18.976-9.2c8.154 0 14.438 3.067 18.972 9.195l1.608-1.19C42.882 2.79 35.982-.544 27.24-.544v2Zm18.975 9.199c4.57 6.113 6.905 14.33 6.905 24.745h2c0-10.704-2.4-19.384-7.303-25.943l-1.602 1.198ZM53.12 35.4c0 10.415-2.335 18.666-6.908 24.845l1.608 1.19c4.9-6.62 7.3-15.33 7.3-26.035h-2Zm-6.905 24.841c-4.533 6.064-10.817 9.103-18.975 9.103v2c8.738 0 15.638-3.297 20.577-9.905l-1.602-1.198Zm-30-7.898c2.491 4.015 6.21 6.041 11.025 6.041v-2c-4.145 0-7.21-1.686-9.326-5.095l-1.7 1.054Zm11.025 6.041c4.823 0 8.541-2.065 11.03-6.143l-1.708-1.042c-2.12 3.474-5.185 5.185-9.322 5.185v2Zm11.023-6.133c2.51-4.003 3.705-9.66 3.705-16.851h-2c0 7.018-1.174 12.24-3.4 15.789l1.695 1.062ZM41.968 35.4c0-7.252-1.193-12.943-3.705-16.947l-1.694 1.062c2.224 3.548 3.399 8.801 3.399 15.885h2ZM38.27 18.463c-2.489-4.078-6.207-6.143-11.03-6.143v2c4.137 0 7.203 1.711 9.322 5.185l1.708-1.042ZM27.24 12.32c-4.823 0-8.541 2.065-11.03 6.143l1.708 1.042c2.12-3.474 5.185-5.185 9.322-5.185v-2Zm-11.03 6.143c-2.442 4.002-3.602 9.688-3.602 16.937h2c0-7.087 1.144-12.345 3.31-15.895l-1.708-1.042ZM12.608 35.4c0 7.249 1.16 12.935 3.602 16.937l1.708-1.042c-2.166-3.55-3.31-8.808-3.31-15.895h-2ZM62.213 69h-1v1h1v-1Zm0-9.888-.717-.697-.283.291v.406h1Zm22.944-23.616.718.697.006-.007-.724-.69Zm5.184-19.776-.707.707.007.007.007.007.693-.721ZM72.87 21.192l-.505.863.95.557.463-1-.908-.42Zm-11.136-6.528-.909-.417-.377.822.78.458.506-.863Zm9.12-10.56-.522-.853.522.853Zm28.704 2.112-.661.75.006.005.655-.755ZM81.893 56.232l-.707-.707-1.707 1.707h2.414v-1Zm25.248 0h1v-1h-1v1Zm0 12.768v1h1v-1h-1Zm-43.928 0v-9.888h-2V69h2Zm-.282-9.191 22.944-23.616-1.435-1.394-22.944 23.616 1.434 1.394Zm22.95-23.623c2.594-2.724 4.571-5.253 5.904-7.586 1.331-2.329 2.052-4.518 2.052-6.544h-2c0 1.558-.559 3.4-1.788 5.552-1.227 2.147-3.09 4.546-5.616 7.198l1.448 1.38Zm7.956-14.13c0-2.855-.915-5.242-2.803-7.057l-1.386 1.442c1.44 1.385 2.19 3.222 2.19 5.615h2Zm-2.789-7.043c-1.812-1.813-4.16-2.693-6.947-2.693v2c2.333 0 4.146.72 5.533 2.107l1.414-1.414Zm-6.947-2.693c-2.71 0-5.116.707-7.174 2.15-2.05 1.436-3.694 3.56-4.965 6.301l1.815.841c1.16-2.505 2.604-4.318 4.298-5.505 1.686-1.182 3.68-1.787 6.026-1.787v-2Zm-10.726 8.01L62.239 13.8l-1.011 1.726 11.136 6.528 1.011-1.726Zm-10.733-5.25c2.037-4.444 4.95-7.804 8.734-10.123L70.33 3.25c-4.153 2.545-7.32 6.225-9.507 10.996l1.818.834Zm8.734-10.123c3.808-2.334 7.978-3.501 12.533-3.501v-2c-4.917 0-9.45 1.265-13.578 3.795l1.045 1.706Zm12.533-3.501c5.85 0 10.827 1.84 14.987 5.51l1.323-1.5c-4.544-4.01-9.999-6.01-16.31-6.01v2Zm14.993 5.515c4.105 3.562 6.183 8.391 6.183 14.605h2c0-6.714-2.273-12.125-6.872-16.115l-1.311 1.51Zm6.183 14.605c0 6.605-3.483 13.533-10.747 20.797l1.414 1.414c7.457-7.456 11.333-14.864 11.333-22.211h-2ZM94.338 42.373 81.186 55.525l1.414 1.414 13.152-13.152-1.414-1.414ZM81.893 57.232h25.248v-2H81.893v2Zm24.248-1V69h2V56.232h-2Zm1 11.768H62.213v2h44.928v-2Z" fill="#BAD6EE" mask="url(#ba)"/></svg><svg fill="none" viewBox="0 0 108 46" id="03" xmlns="http://www.w3.org/2000/svg"><mask id="ca" maskUnits="userSpaceOnUse" x="-1" y="-1" width="110" height="73" fill="#000"><path fill="#fff" d="M-1-1h110v73H-1z"/><path d="M27.24 70.344c-8.384 0-14.976-3.168-19.776-9.504C2.728 54.44.36 45.96.36 35.4s2.368-19.008 7.104-25.344c4.8-6.4 11.392-9.6 19.776-9.6 8.448 0 15.04 3.2 19.776 9.6C51.752 16.392 54.12 24.84 54.12 35.4s-2.368 19.04-7.104 25.44c-4.736 6.336-11.328 9.504-19.776 9.504ZM17.064 51.816c2.304 3.712 5.696 5.568 10.176 5.568s7.872-1.888 10.176-5.664c2.368-3.776 3.552-9.216 3.552-16.32 0-7.168-1.184-12.64-3.552-16.416-2.304-3.776-5.696-5.664-10.176-5.664s-7.872 1.888-10.176 5.664c-2.304 3.776-3.456 9.248-3.456 16.416 0 7.168 1.152 12.64 3.456 16.416Zm75.414-22.752c4.544 1.344 8.224 3.712 11.04 7.104 2.88 3.328 4.32 7.36 4.32 12.096 0 6.912-2.336 12.32-7.008 16.224-4.608 3.904-10.272 5.856-16.992 5.856-5.248 0-9.952-1.184-14.112-3.552-4.096-2.432-7.072-5.984-8.928-10.656l11.328-6.528c1.664 5.184 5.568 7.776 11.712 7.776 3.392 0 6.016-.8 7.872-2.4 1.92-1.664 2.88-3.904 2.88-6.72 0-2.752-.96-4.96-2.88-6.624-1.856-1.664-4.48-2.496-7.872-2.496h-2.88l-5.088-7.68 13.248-17.28H62.814V1.8h42.24v10.944l-12.576 16.32Z"/></mask><path d="m7.464 60.84-.804.595.007.009.797-.604Zm0-50.784-.8-.6-.001.001.801.599Zm39.552 0-.804.595.003.004.801-.599Zm0 50.784.801.599.003-.004-.804-.595Zm-29.952-9.024-.854.52.004.007.85-.527Zm20.352-.096-.847-.531-.007.01.854.521Zm0-32.736-.854.52.007.011.847-.531ZM27.24 69.344c-8.09 0-14.38-3.037-18.979-9.108l-1.594 1.208c5 6.6 11.896 9.9 20.573 9.9v-2ZM8.268 60.245C3.695 54.065 1.36 45.815 1.36 35.4h-2c0 10.705 2.4 19.414 7.3 26.035l1.608-1.19ZM1.36 35.4c0-10.416 2.335-18.632 6.905-24.745L6.663 9.457C1.761 16.016-.64 24.696-.64 35.4h2Zm6.904-24.744c4.6-6.134 10.89-9.2 18.976-9.2v-2c-8.681 0-15.577 3.334-20.576 10l1.6 1.2Zm18.976-9.2c8.154 0 14.438 3.067 18.972 9.195l1.608-1.19C42.882 2.79 35.982-.544 27.24-.544v2Zm18.975 9.199c4.57 6.113 6.905 14.33 6.905 24.745h2c0-10.704-2.4-19.384-7.303-25.943l-1.602 1.198ZM53.12 35.4c0 10.415-2.335 18.666-6.908 24.845l1.608 1.19c4.9-6.62 7.3-15.33 7.3-26.035h-2Zm-6.905 24.841c-4.533 6.064-10.817 9.103-18.975 9.103v2c8.738 0 15.638-3.297 20.577-9.905l-1.602-1.198Zm-30-7.898c2.491 4.015 6.21 6.041 11.025 6.041v-2c-4.145 0-7.21-1.686-9.326-5.095l-1.7 1.054Zm11.025 6.041c4.823 0 8.541-2.065 11.03-6.143l-1.708-1.042c-2.12 3.474-5.185 5.185-9.322 5.185v2Zm11.023-6.133c2.51-4.003 3.705-9.66 3.705-16.851h-2c0 7.018-1.174 12.24-3.4 15.789l1.695 1.062ZM41.968 35.4c0-7.252-1.193-12.943-3.705-16.947l-1.694 1.062c2.224 3.548 3.399 8.801 3.399 15.885h2ZM38.27 18.463c-2.489-4.078-6.207-6.143-11.03-6.143v2c4.137 0 7.203 1.711 9.322 5.185l1.708-1.042ZM27.24 12.32c-4.823 0-8.541 2.065-11.03 6.143l1.708 1.042c2.12-3.474 5.185-5.185 9.322-5.185v-2Zm-11.03 6.143c-2.442 4.002-3.602 9.688-3.602 16.937h2c0-7.087 1.144-12.345 3.31-15.895l-1.708-1.042ZM12.608 35.4c0 7.249 1.16 12.935 3.602 16.937l1.708-1.042c-2.166-3.55-3.31-8.808-3.31-15.895h-2Zm79.87-6.336-.792-.61-.89 1.155 1.398.414.284-.959Zm11.04 7.104-.769.639.006.008.007.007.756-.654Zm-2.688 28.32-.641-.767-.005.004.646.763Zm-31.104 2.304-.51.86.007.004.008.005.495-.869Zm-8.928-10.656-.5-.866-.749.431.32.804.929-.369Zm11.328-6.528.952-.306-.378-1.179-1.073.619.499.866Zm19.584 5.376.653.757.002-.001-.655-.756Zm0-13.344-.667.745.006.005.006.006.655-.756Zm-10.752-2.496-.834.552.297.448h.537v-1Zm-5.088-7.68-.794-.608-.434.566.394.594.834-.552Zm13.248-17.28.794.608 1.233-1.608h-2.027v1Zm-26.304 0h-1v1h1v-1Zm0-12.384v-1h-1v1h1Zm42.24 0h1v-1h-1v1Zm0 10.944.792.61.208-.27v-.34h-1Zm-12.86 17.279c4.37 1.292 7.875 3.556 10.555 6.784l1.538-1.278c-2.952-3.556-6.806-6.028-11.525-7.424l-.568 1.918Zm10.568 6.8c2.71 3.131 4.076 6.926 4.076 11.441h2c0-4.957-1.514-9.226-4.564-12.75l-1.512 1.308Zm4.076 11.441c0 6.66-2.237 11.77-6.649 15.457l1.282 1.534c4.932-4.12 7.367-9.828 7.367-16.991h-2Zm-6.654 15.461c-4.407 3.733-9.834 5.619-16.346 5.619v2c6.928 0 12.83-2.018 17.638-6.093l-1.292-1.526Zm-16.346 5.619c-5.092 0-9.622-1.147-13.617-3.421l-.99 1.738c4.325 2.462 9.203 3.683 14.607 3.683v-2Zm-13.601-3.412c-3.895-2.313-6.73-5.686-8.51-10.165l-1.858.738c1.932 4.865 5.05 8.595 9.347 11.147l1.02-1.72Zm-8.94-8.93 11.328-6.528-.998-1.732-11.328 6.528.998 1.732Zm9.877-7.088c.89 2.771 2.404 4.918 4.575 6.36 2.16 1.433 4.88 2.11 8.089 2.11v-2c-2.935 0-5.239-.62-6.983-1.777-1.733-1.15-3.002-2.892-3.777-5.305l-1.904.612Zm12.664 8.47c3.54 0 6.428-.835 8.525-2.643l-1.306-1.514c-1.615 1.392-3.975 2.157-7.219 2.157v2Zm8.527-2.644c2.164-1.876 3.225-4.405 3.225-7.476h-2c0 2.561-.86 4.512-2.535 5.964l1.31 1.512Zm3.225-7.476c0-3.015-1.066-5.509-3.225-7.38l-1.31 1.512c1.681 1.457 2.535 3.379 2.535 5.868h2Zm-3.213-7.369c-2.096-1.88-4.99-2.751-8.539-2.751v2c3.235 0 5.59.792 7.205 2.24l1.334-1.489Zm-8.539-2.751h-2.88v2h2.88v-2Zm-2.046.448-5.088-7.68-1.668 1.104 5.088 7.68 1.668-1.104Zm-5.128-6.52 13.248-17.28-1.588-1.216-13.248 17.28 1.588 1.216Zm12.454-18.888H62.814v2h26.304v-2Zm-25.304 1V1.8h-2v12.384h2Zm-1-11.384h42.24v-2h-42.24v2Zm41.24-1v10.944h2V1.8h-2Zm.208 10.334-12.576 16.32 1.584 1.22 12.576-16.32-1.584-1.22Z" fill="#BAD6EE" mask="url(#ca)"/></svg><svg fill="none" viewBox="0 0 11 11" id="Phone" xmlns="http://www.w3.org/2000/svg"><path d="M10.7 8.073 9.167 6.538c-.549-.548-1.48-.33-1.7.384-.164.493-.713.767-1.206.657-1.096-.274-2.577-1.7-2.85-2.85-.165-.494.164-1.042.657-1.207.713-.219.932-1.15.384-1.7L2.916.289c-.439-.384-1.097-.384-1.48 0L.393 1.329C-.648 2.426.504 5.332 3.08 7.91c2.577 2.576 5.483 3.782 6.58 2.686l1.04-1.042c.385-.438.385-1.096 0-1.48Z" fill="#00BDD3"/></svg><svg fill="none" viewBox="0 0 17 17" id="arrow" xmlns="http://www.w3.org/2000/svg"><g clip-path="url(#fa)"><path d="M8.5 16.994c4.694 0 8.5-3.803 8.5-8.494S13.194.006 8.5.006 0 3.809 0 8.5s3.806 8.494 8.5 8.494Z" fill="#00BDD3"/><path d="M7.82 13.018 3.8 9.888 4.945 8.42l2.467 1.922 4.074-5.877 1.528 1.059-5.193 7.493Z" fill="#fff"/></g><defs><clipPath id="fa"><path fill="#fff" d="M0 0h17v17H0z"/></clipPath></defs></svg><svg fill="none" viewBox="0 0 17 17" id="arrow-eco" xmlns="http://www.w3.org/2000/svg"><g clip-path="url(#da)"><path d="M8.5 16.989c4.694 0 8.5-3.803 8.5-8.495C17 3.804 13.194 0 8.5 0S0 3.803 0 8.494c0 4.692 3.806 8.495 8.5 8.495Z" fill="#00D32E"/><path d="M7.82 13.018 3.8 9.888 4.945 8.42l2.467 1.923 4.074-5.878 1.528 1.059-5.193 7.493Z" fill="#fff"/></g><defs><clipPath id="da"><path fill="#fff" d="M0 0h17v17H0z"/></clipPath></defs></svg><svg fill="none" viewBox="0 0 9 13" id="arrow-swiper" xmlns="http://www.w3.org/2000/svg"><path d="M8.112 5.993 2.326.208A.706.706 0 0 0 1.824 0c-.19 0-.37.074-.503.208L.895.634a.712.712 0 0 0 0 1.005l4.858 4.858-4.864 4.864a.707.707 0 0 0-.207.502c0 .191.074.37.207.504l.426.425a.706.706 0 0 0 .503.208c.19 0 .37-.074.503-.208l5.79-5.79a.707.707 0 0 0 .208-.504.707.707 0 0 0-.207-.505Z" fill="#fff"/></svg><svg fill="none" viewBox="0 0 33 33" id="broom" xmlns="http://www.w3.org/2000/svg"><g clip-path="url(#ga)" fill="#00BDD3"><path d="M15.837 16.347a3.182 3.182 0 0 0-.344.144 3.782 3.782 0 0 0-1.773 2.014c-.534 1.245-3.006 5.421-12.436 6.85a1.092 1.092 0 0 0-.752.467c-.17.251-.226.563-.153.858a5.37 5.37 0 0 0 1.1 2.067c.034.06.08.115.134.159a9.17 9.17 0 0 0 3.551 2.352c.015.005.028.012.044.017.64.253 1.296.462 1.964.627a20.55 20.55 0 0 0 3.6.557.536.536 0 0 0 .065.01c.006 0 .012-.005.017-.005.32.019.644.032.974.032 2.095 0 4.406-.423 6.262-1.806a3.17 3.17 0 0 0 3.03.297 4.573 4.573 0 0 0 6.596.23 3.517 3.517 0 1 0 2.363-6.59 4.129 4.129 0 0 0-6.795-1.869 3.03 3.03 0 0 0-1.987-.337 21.851 21.851 0 0 0-.285-2.576 4.554 4.554 0 0 0-1.482-2.667l2.885-14.924a1.865 1.865 0 0 0-.282-1.411 1.89 1.89 0 0 0-3.431.688l-2.865 14.816Zm7.2 7.538a.54.54 0 0 0 .742-.082 3.047 3.047 0 0 1 5.321 1.389.54.54 0 0 0 .456.433 2.434 2.434 0 1 1-1.652 4.46.541.541 0 0 0-.704.105 3.492 3.492 0 0 1-5.495-.203.541.541 0 0 0-.722-.142 2.1 2.1 0 1 1-1.703-3.798.541.541 0 0 0 .386-.513 2.11 2.11 0 0 1 2.1-2.077c.46-.002.907.15 1.271.428Zm-4.427 1.259a3.207 3.207 0 0 0-1.912 2.917c0 .673.216 1.327.613 1.869a8.761 8.761 0 0 1-4.431 1.45 11.67 11.67 0 0 0 2.458-2.177.541.541 0 1 0-.831-.693 11.644 11.644 0 0 1-3.784 2.867 19.576 19.576 0 0 1-3.289-.526c-.097-.025-.183-.054-.277-.077 2.89-.99 6.202-2.692 8.169-5.586a.541.541 0 0 0-.895-.608c-2.126 3.13-6.046 4.773-9.029 5.607a8.954 8.954 0 0 1-2.294-1.331 20.388 20.388 0 0 0 6.078-1.873.54.54 0 1 0-.518-.95c-1.977 1.079-4.796 1.627-6.483 1.876a4.094 4.094 0 0 1-.746-1.482c8.314-1.262 11.577-4.662 12.775-6.561.205.197.428.374.667.528a4.831 4.831 0 0 0 2.65.734c.062 0 .122 0 .184-.003a8.553 8.553 0 0 0 2.338-.367c.094.673.15 1.35.17 2.03a3.192 3.192 0 0 0-1.613 2.356Zm1.25-5.469a7.242 7.242 0 0 1-2.18.368 3.787 3.787 0 0 1-2.208-.556 3.05 3.05 0 0 1-.718-.63c.229-.594.66-1.088 1.218-1.395a2.387 2.387 0 0 1 1.948-.024 3.3 3.3 0 0 1 1.94 2.237Zm-.096-17.939a.811.811 0 0 1 .943-.643.822.822 0 0 1 .527.35.795.795 0 0 1 .12.602l-2.806 14.498c-.081-.038-.162-.082-.245-.114a3.921 3.921 0 0 0-1.329-.26l2.79-14.433Z"/><path d="M25.434 25.2a.883.883 0 0 1 1.542.402.541.541 0 0 0 1.063-.205 1.966 1.966 0 0 0-3.433-.895.541.541 0 1 0 .828.698ZM28.402 18.664a1.893 1.893 0 1 0 3.787 0 1.893 1.893 0 0 0-3.787 0Zm2.705 0a.811.811 0 1 1-1.623 0 .811.811 0 0 1 1.623 0ZM26.78 16.77a1.623 1.623 0 1 0 0-3.246 1.623 1.623 0 0 0 0 3.246Zm0-2.163a.541.541 0 1 1 0 1.081.541.541 0 0 1 0-1.082ZM4.057 12.443a.541.541 0 0 0 .54-.541V10.82a.541.541 0 1 0-1.081 0v1.082c0 .298.242.54.54.54ZM4.598 15.148v-1.082a.541.541 0 1 0-1.082 0v1.082a.541.541 0 1 0 1.082 0ZM1.893 13.525h1.082a.541.541 0 1 0 0-1.082H1.893a.541.541 0 1 0 0 1.082ZM5.139 13.525H6.22a.541.541 0 0 0 0-1.082H5.139a.541.541 0 1 0 0 1.082ZM6.11 19.363l-.812.812a.541.541 0 1 0 .765.765l.811-.812a.541.541 0 0 0-.765-.765ZM9.308 16.929a.541.541 0 0 0-.765 0l-.811.812a.541.541 0 1 0 .765.764l.811-.811a.541.541 0 0 0 0-.765ZM8.497 19.363a.541.541 0 0 0-.765.765l.811.812a.54.54 0 0 0 .765-.765l-.811-.812ZM6.875 17.74l-.812-.811a.541.541 0 0 0-.765.765l.812.811a.541.541 0 0 0 .765-.765ZM6.67 5.449l9.196 1.623a.541.541 0 0 0 .188-1.065L6.859 4.384a.541.541 0 0 0-.188 1.065ZM15.322 9.777a.541.541 0 0 0 .188-1.065L9.648 7.676a.541.541 0 1 0-.188 1.066l5.864 1.035ZM7.254 10.556a.541.541 0 0 0 .44.627l7.089 1.251a.54.54 0 1 0 .188-1.066l-7.09-1.252a.541.541 0 0 0-.627.44Z"/></g><defs><clipPath id="ga"><path fill="#fff" d="M0 0h33v33H0z"/></clipPath></defs></svg><svg fill="none" viewBox="0 0 32 32" id="bubbles" xmlns="http://www.w3.org/2000/svg"><path d="M16 16a6.4 6.4 0 1 1-12.8 0A6.4 6.4 0 0 1 16 16ZM17.6 28.8a3.2 3.2 0 1 0 0-6.4 3.2 3.2 0 0 0 0 6.4ZM28.8 24.533c-1.179 0-2.133.956-2.133 2.133H25.6a2.135 2.135 0 0 0-2.133-2.133v-1.067c1.18 0 2.133-.956 2.133-2.133h1.067c0 1.177.956 2.133 2.133 2.133v1.067ZM10.666 26.666a1.067 1.067 0 1 0 0-2.133 1.067 1.067 0 0 0 0 2.133ZM4.266 9.6a1.067 1.067 0 1 0 0-2.133 1.067 1.067 0 0 0 0 2.133ZM10.133 7.467a1.6 1.6 0 1 0 0-3.2 1.6 1.6 0 0 0 0 3.2ZM7.466 27.2a1.599 1.599 0 1 1-3.2 0 1.6 1.6 0 0 1 3.2 0Z" fill="#01BBD1"/><path d="M20.267 3.2c-3.38 0-6.29 1.97-7.673 4.819 3.231 1.217 5.54 4.33 5.54 7.981 0 1.333-.315 2.59-.863 3.714.933.352 1.94.552 2.996.552a8.533 8.533 0 1 0 0-17.066Zm4.267 8.534a4.265 4.265 0 0 0-4.267-4.267V5.334c3.535 0 6.4 2.864 6.4 6.4h-2.133Z" fill="#01BBD1"/></svg><svg fill="none" viewBox="0 0 12 12" id="clock" xmlns="http://www.w3.org/2000/svg"><path d="M6 .5A5.5 5.5 0 1 0 11.5 6 5.506 5.506 0 0 0 6 .5Zm1.854 7.354a.5.5 0 0 1-.708 0l-1.5-1.5A.5.5 0 0 1 5.5 6V3a.5.5 0 0 1 1 0v2.793l1.354 1.353a.5.5 0 0 1 0 .708Z" fill="#01BCD2"/></svg><svg fill="none" viewBox="0 0 65 52" id="corner" xmlns="http://www.w3.org/2000/svg"><path d="M0-3c0-7.732 6.268-14 14-14h51v32.5C65 35.658 48.658 52 28.5 52H0V-3Z" fill="#FFCE20"/></svg><svg fill="none" viewBox="0 0 35 34" id="economy" xmlns="http://www.w3.org/2000/svg"><path d="m32.74 17.733-1.394-.447a.583.583 0 0 1-.376-.381 8.988 8.988 0 0 0-1.318-2.607 9.558 9.558 0 0 0-.88-1.04c.205-.901.317-1.923.302-2.805-.02-1.262-.273-2.003-.77-2.264-.27-.14-1.086-.568-5.505 1.455a1.61 1.61 0 0 0-.293.175c-.297-.08-.602-.154-.908-.221l-.113-.023a6.749 6.749 0 0 0 .607-2.509.495.495 0 1 0-.99-.044 5.756 5.756 0 0 1-3.771 5.153 14.364 14.364 0 0 0-3.988 0 5.734 5.734 0 0 1-2.086-1.333 5.733 5.733 0 0 1-1.69-4.08c0-1.542.6-2.99 1.69-4.08A5.733 5.733 0 0 1 15.337.99c1.541 0 2.99.6 4.08 1.69.439.438.8.938 1.077 1.486a.495.495 0 1 0 .885-.446 6.757 6.757 0 0 0-1.26-1.74A6.718 6.718 0 0 0 15.337 0a6.718 6.718 0 0 0-4.781 1.98 6.718 6.718 0 0 0-1.98 4.782c0 1.806.703 3.504 1.98 4.781.368.368.77.685 1.193.95-.308.08-.613.17-.916.272a.495.495 0 1 0 .315.94 13.294 13.294 0 0 1 8.379 0 .495.495 0 1 0 .314-.94 13.925 13.925 0 0 0-.916-.271 6.758 6.758 0 0 0 2.057-2.011 18.61 18.61 0 0 1 .936.207l-.016.065c-.241 1.146-.226 2.16.047 3.014a3.586 3.586 0 0 0 1.314 1.846c.738.54 1.63.774 2.438.774.608 0 1.169-.132 1.58-.365.466-.264.856-.82 1.165-1.654a8 8 0 0 1 1.579 2.832c.153.488.534.873 1.02 1.028l1.393.447a.877.877 0 0 1 .612.838v2.312c0 .384-.246.72-.611.838l-2.247.72a1.53 1.53 0 0 0-.857.695c-.882 1.525-2.27 2.788-4.124 3.752a.776.776 0 0 0-.407.547l-.72 3.81a.223.223 0 0 1-.218.18h-2.34a.223.223 0 0 1-.219-.18l-.398-2.106a.778.778 0 0 0-.885-.626 20.707 20.707 0 0 1-5.357.101.785.785 0 0 0-.858.63l-.38 2a.223.223 0 0 1-.218.182h-2.34a.223.223 0 0 1-.218-.183L9.96 28.59a.778.778 0 0 0-.4-.541C6.4 26.36 4.728 23.54 4.728 19.895c0-1.842.404-3.471 1.198-4.842.742-1.279 1.825-2.337 3.22-3.143a.495.495 0 0 0-.496-.858c-2.704 1.564-4.336 3.978-4.785 7.044l-.143-.014a2.467 2.467 0 0 0-.181-.988c-.288-.715-.878-1.23-1.504-1.314-.494-.066-.964.144-1.29.574-.472.625-.395 1.12-.248 1.424.25.514.891.878 1.956 1.106-.03.044-.062.088-.097.132-.629.79-1.37.964-1.85.98a.52.52 0 0 0-.508.517v.003c0 .278.22.505.497.517.036.002.073.003.111.003.61 0 1.586-.225 2.525-1.402.148-.186.269-.382.362-.584.093.01.183.02.269.027-.017.268-.026.54-.026.818 0 2.063.492 3.902 1.461 5.467.895 1.443 2.175 2.624 3.807 3.513l.674 3.498c.108.572.61.988 1.192.988h2.34c.582 0 1.083-.416 1.191-.988l.343-1.81c.71.076 1.447.114 2.191.114 1.022 0 2.042-.07 3.036-.211l.36 1.907c.11.572.61.988 1.193.988h2.34c.582 0 1.083-.416 1.192-.988l.7-3.71c1.98-1.046 3.471-2.421 4.435-4.087a.542.542 0 0 1 .301-.248l2.247-.72c.777-.249 1.3-.965 1.3-1.782v-2.311c0-.817-.523-1.533-1.3-1.782Zm-4.73-5.888c-.192 1.63-.703 3.025-1.217 3.317-.584.33-1.933.394-2.945-.346-1.014-.742-1.352-2.075-.976-3.857a.598.598 0 0 1 .34-.414c2.48-1.135 3.91-1.506 4.441-1.506.08 0 .14.008.18.024.16.17.369 1.136.176 2.782Zm-26.62 5.5c-.05-.105.07-.291.147-.393.122-.16.234-.193.319-.193.018 0 .034.001.05.003.227.03.546.281.716.702.04.099.091.262.103.467-.686-.142-1.218-.347-1.334-.586Z" fill="#00BDD3"/><path d="M26.56 18.36a.464.464 0 0 0-.458.469.59.59 0 0 1-.582.595.59.59 0 0 1-.583-.595.464.464 0 0 0-.459-.468.464.464 0 0 0-.459.468c0 .845.674 1.532 1.5 1.532.828 0 1.5-.688 1.5-1.532a.464.464 0 0 0-.458-.468Z" fill="#00BDD3"/></svg><svg fill="none" viewBox="0 0 36 36" id="health" xmlns="http://www.w3.org/2000/svg"><g clip-path="url(#la)" fill="#00BDD3"><path d="M32.762 8.548a2.129 2.129 0 0 0-1.105-1.87L19.014.269A2.05 2.05 0 0 0 17.002.26L4.422 6.633A2.138 2.138 0 0 0 3.234 8.55v10.424c0 3.781 1.395 7.42 4.034 10.524 2.591 3.048 6.196 5.327 10.15 6.42a2.052 2.052 0 0 0 1.125.01c3.97-1.088 7.588-3.371 10.188-6.43 2.638-3.103 4.033-6.743 4.033-10.525l-.002-10.424Zm-5.103 20.038c-2.418 2.846-5.788 4.97-9.487 5.984a.641.641 0 0 1-.36-.003l-.014-.005c-3.687-1.016-7.047-3.139-9.459-5.975-2.42-2.846-3.698-6.171-3.698-9.614V8.549a.724.724 0 0 1 .41-.658L17.65 1.507a.658.658 0 0 1 .713.008l12.643 6.41c.216.126.35.364.35.624l.002 10.424c0 3.443-1.279 6.768-3.699 9.614Z" stroke="#ECF2F7" stroke-width=".4"/><path d="M29.565 8.77 18.317 3.069a.703.703 0 0 0-.636 0l-2.802 1.42a.703.703 0 1 0 .635 1.254L18 4.483 28.544 9.83l.002 9.143c0 2.766-1.047 5.46-3.03 7.792-1.922 2.26-4.585 4.004-7.516 4.925-2.932-.92-5.595-2.664-7.518-4.925-1.982-2.331-3.029-5.026-3.029-7.793V9.828L9.87 8.602a.703.703 0 0 0-.636-1.254l-2.802 1.42a.703.703 0 0 0-.385.627v9.578c0 3.105 1.163 6.114 3.364 8.703 2.14 2.517 5.118 4.443 8.387 5.423a.703.703 0 0 0 .404 0c3.268-.98 6.246-2.906 8.386-5.423 2.202-2.59 3.365-5.599 3.364-8.703l-.002-9.575a.703.703 0 0 0-.385-.627Z" stroke="#ECF2F7" stroke-width=".4"/><path d="M14.484 20.346h1.23v1.23c0 .775.632 1.406 1.407 1.406h1.758c.775 0 1.406-.63 1.406-1.406v-1.23h1.23c.776 0 1.406-.631 1.406-1.407v-1.757c0-.776-.63-1.407-1.406-1.407h-1.23v-1.23c0-.775-.631-1.406-1.406-1.406H17.12c-.775 0-1.406.63-1.406 1.406v1.23h-1.23c-.776 0-1.407.631-1.407 1.407v1.757c0 .776.63 1.407 1.406 1.407Zm1.934-3.164a.703.703 0 0 0 .703-.703v-1.934h1.758v1.934c0 .388.314.703.703.703h1.933v1.757h-1.933a.703.703 0 0 0-.703.703v1.934H17.12v-1.934a.703.703 0 0 0-.703-.703h-1.934v-1.757h1.934Z" stroke="#EDF2F6" stroke-width=".4"/><path d="M9.563 18.06c0 4.653 3.784 8.438 8.437 8.438 4.652 0 8.437-3.785 8.437-8.438 0-4.652-3.785-8.437-8.437-8.437-4.653 0-8.438 3.785-8.438 8.437ZM18 11.03a7.039 7.039 0 0 1 7.03 7.03A7.039 7.039 0 0 1 18 25.091a7.039 7.039 0 0 1-7.031-7.03 7.039 7.039 0 0 1 7.03-7.031Z" stroke="#EDF2F6" stroke-width=".4"/><path d="M12.376 7.249a.703.703 0 1 0 0-1.407.703.703 0 0 0 0 1.407Z"/></g><defs><clipPath id="la"><path fill="#fff" d="M0 0h36v36H0z"/></clipPath></defs></svg><svg fill="none" viewBox="0 0 9 9" id="instagram" xmlns="http://www.w3.org/2000/svg"><g clip-path="url(#ma)" fill="#fff"><path d="M7.117 1.665a.219.219 0 1 0 0 .438.219.219 0 0 0 0-.438ZM4.5 2.563A1.94 1.94 0 0 0 2.562 4.5 1.94 1.94 0 0 0 4.5 6.437 1.94 1.94 0 0 0 6.437 4.5 1.94 1.94 0 0 0 4.5 2.563Z"/><path d="M6.533 0H2.467A2.47 2.47 0 0 0 0 2.467v4.066A2.47 2.47 0 0 0 2.467 9h4.066A2.47 2.47 0 0 0 9 6.533V2.467A2.47 2.47 0 0 0 6.533 0ZM4.5 6.969A2.471 2.471 0 0 1 2.031 4.5 2.471 2.471 0 0 1 4.5 2.031 2.471 2.471 0 0 1 6.969 4.5 2.471 2.471 0 0 1 4.5 6.969Zm2.616-4.335a.75.75 0 1 1 .002-1.502.75.75 0 0 1-.002 1.502Z"/></g><defs><clipPath id="ma"><path fill="#fff" d="M0 0h9v9H0z"/></clipPath></defs></svg><svg fill="none" viewBox="0 0 23 15" id="minus" xmlns="http://www.w3.org/2000/svg"><path d="M17.268 5.232H3.732a.732.732 0 1 1 0-1.464h13.536a.733.733 0 0 1 0 1.464Z" fill="#fff"/></svg><svg fill="none" viewBox="0 0 20 15" id="plus" xmlns="http://www.w3.org/2000/svg"><path d="M7.5 15a.733.733 0 0 1-.732-.732V.732a.732.732 0 1 1 1.464 0v13.536A.733.733 0 0 1 7.5 15Z" fill="#fff"/><path d="M14.268 8.232H.732a.732.732 0 1 1 0-1.464h13.536a.733.733 0 0 1 0 1.464Z" fill="#fff"/></svg><svg fill="none" viewBox="0 0 28 28" id="security" xmlns="http://www.w3.org/2000/svg"><path d="M19.251 5.25h2.334c.233 0 .466-.116.525-.35.117-.233.056-.466-.116-.642l-3.5-3.5c-.175-.175-.409-.233-.642-.116-.234.117-.35.292-.35.525V3.5c0 .992.755 1.75 1.75 1.75Z" fill="#01BBD1"/><path d="M14.584 17.442a1.196 1.196 0 0 1 .76-1.109l4.667-1.691c.116-.056.292-.056.408-.056.117 0 .292 0 .408.056l1.344.466V6.3a2.072 2.072 0 0 1-.583.116H19.25A2.888 2.888 0 0 1 16.334 3.5V1.166c.01-.199.05-.395.117-.583H4.084a1.72 1.72 0 0 0-1.75 1.75V24.5c0 .992.758 1.75 1.75 1.75h12.25c-.99-.994-1.75-2.334-1.75-4.025v-4.783ZM7 7h5.25c.35 0 .584.233.584.583s-.233.584-.583.584H7c-.35 0-.584-.234-.584-.584S6.65 7 7 7Zm0 2.916h10.5c.35 0 .584.234.584.584s-.233.583-.584.583H7c-.35 0-.583-.233-.583-.583s.233-.584.583-.584Zm-.583 3.5c0-.35.233-.583.583-.583h8.167c.35 0 .584.233.584.583s-.234.584-.584.584H7c-.35 0-.583-.234-.583-.584Z" fill="#01BBD1"/><path d="m20.416 15.75-4.666 1.692v4.725c0 3.266 3.616 4.842 4.666 5.192 1.05-.35 4.667-1.925 4.667-5.192v-4.725l-4.666-1.692Zm2.217 4.433-1.75 2.334c-.116.117-.234.234-.408.234h-.056a.53.53 0 0 1-.409-.175l-1.166-1.167a.578.578 0 0 1 .812-.817l.7.7 1.344-1.809c.175-.233.584-.291.817-.116.232.175.291.583.117.816h-.001Z" fill="#01BBD1"/></svg><svg fill="none" viewBox="0 0 33 33" id="stars" xmlns="http://www.w3.org/2000/svg"><g clip-path="url(#ra)" fill="#01BBD1"><path d="M7.5 15.466a.827.827 0 0 0 .813-.964l-.414-2.412 1.751-1.708a.824.824 0 0 0-.455-1.406l-2.422-.352L5.69 6.43a.858.858 0 0 0-1.48 0L3.128 8.623l-2.422.352a.824.824 0 0 0-.456 1.407L2 12.09 1.587 14.5a.825.825 0 0 0 1.197.87l2.166-1.138 2.166 1.138c.118.062.25.095.383.095ZM19.048 15.466a.827.827 0 0 0 .814-.964l-.414-2.412 1.751-1.708a.824.824 0 0 0-.456-1.406l-2.421-.352-1.083-2.194a.858.858 0 0 0-1.48 0l-1.082 2.193-2.422.352a.824.824 0 0 0-.456 1.407l1.751 1.708-.414 2.411a.826.826 0 0 0 1.198.87l2.165-1.138 2.166 1.138a.82.82 0 0 0 .383.095ZM32.96 9.536a.826.826 0 0 0-.666-.56l-2.422-.353-1.083-2.193a.858.858 0 0 0-1.479 0l-1.083 2.193-2.422.352a.824.824 0 0 0-.456 1.407l1.752 1.708-.414 2.411a.825.825 0 0 0 1.197.87l2.166-1.138 2.165 1.138a.826.826 0 0 0 1.198-.87l-.415-2.41 1.752-1.709a.825.825 0 0 0 .21-.846ZM26.519 20.525l-2.422-.352-1.083-2.194a.86.86 0 0 0-1.48 0l-1.082 2.194-2.422.352a.826.826 0 0 0-.456 1.408l1.751 1.708-.413 2.412a.825.825 0 0 0 1.197.868l2.165-1.139 2.166 1.14a.826.826 0 0 0 1.197-.868l-.414-2.413 1.752-1.708a.826.826 0 0 0-.456-1.408ZM14.97 20.525l-2.422-.352-1.083-2.194a.86.86 0 0 0-1.48 0l-1.082 2.194-2.422.352a.825.825 0 0 0-.456 1.408l1.752 1.708-.415 2.412a.826.826 0 0 0 1.198.868l2.165-1.139 2.166 1.14a.826.826 0 0 0 1.197-.868l-.414-2.413 1.751-1.708a.826.826 0 0 0-.456-1.408Z"/></g><defs><clipPath id="ra"><path fill="#fff" d="M0 0h33v33H0z"/></clipPath></defs></svg><svg fill="none" viewBox="0 0 9 9" id="telegram" xmlns="http://www.w3.org/2000/svg"><g clip-path="url(#sa)"><path d="m3.531 5.693-.148 2.094c.213 0 .305-.092.415-.202l1-.954 2.068 1.515c.38.212.647.1.75-.349l1.358-6.364c.12-.562-.203-.78-.572-.643L.418 3.846c-.545.212-.537.516-.093.653l2.041.635 4.741-2.967c.224-.147.426-.065.26.082L3.53 5.693Z" fill="#fff"/></g><defs><clipPath id="sa"><path fill="#fff" d="M0 0h9v9H0z"/></clipPath></defs></svg><svg fill="none" viewBox="0 0 30 30" id="vaccum-cleaner" xmlns="http://www.w3.org/2000/svg"><path d="M25.102 3.574a.586.586 0 1 0 0-1.172.586.586 0 0 0 0 1.172ZM28.031 13.535a.586.586 0 1 0 0-1.172.586.586 0 0 0 0 1.172ZM10.453 14.121a.586.586 0 1 0 0-1.172.586.586 0 0 0 0 1.172ZM8.11 18.223a.586.586 0 1 0 0-1.172.586.586 0 0 0 0 1.172ZM2.25 17.637a.586.586 0 1 0 0-1.172.586.586 0 0 0 0 1.172ZM3.422 3.574a.586.586 0 1 0 0-1.172.586.586 0 0 0 0 1.172ZM21.879 8.555v.586h2.344v-.586c0-.646-.526-1.172-1.172-1.172-.646 0-1.172.526-1.172 1.172ZM20.707 25.254a3.813 3.813 0 0 1 3.516-3.796V9.727c-.483.01-1.223-.043-2.344.116v4.366c0 5.282-4.298 9.58-9.58 9.58h-.381v4.688h1.758v-2.051a.293.293 0 0 1 .586 0v2.05h1.758v-2.05a.293.293 0 0 1 .585 0v2.05h1.758v-2.05a.293.293 0 0 1 .586 0v2.05h3.54a3.808 3.808 0 0 1-1.782-3.222Z" fill="#01BBD1"/><path d="M11.918 21.328v1.875h.38c4.96 0 8.995-4.034 8.995-8.994V9.942c-5.335 1.041-9.375 5.75-9.375 11.386ZM6.059 24.082a.88.88 0 0 0-1.758 0v1.465h1.758v-1.465ZM6.43 26.133h-2.5a2.562 2.562 0 0 0-2.55 2.344h7.6a2.562 2.562 0 0 0-2.55-2.344ZM24.516 22.031a3.226 3.226 0 0 0-3.223 3.223 3.226 3.226 0 0 0 3.223 3.223 3.226 3.226 0 0 0 3.222-3.223 3.226 3.226 0 0 0-3.222-3.223Zm0 4.688a1.467 1.467 0 0 1-1.465-1.465c0-.808.657-1.465 1.465-1.465.807 0 1.465.657 1.465 1.465s-.658 1.465-1.465 1.465Z" fill="#01BBD1"/><path d="M24.516 24.375a.88.88 0 0 0 0 1.758.88.88 0 0 0 0-1.758ZM13.09 7.969V6.943a4.84 4.84 0 0 1 4.834-4.834 4.839 4.839 0 0 1 4.83 4.688h.588a5.426 5.426 0 0 0-5.418-5.274 5.426 5.426 0 0 0-5.42 5.42V7.97a1.76 1.76 0 0 1-1.758 1.758 1.76 1.76 0 0 1-1.758-1.758V6.504c0-1.13-.92-2.05-2.05-2.05-1.131 0-2.051.92-2.051 2.05v16.113h.586V6.504c0-.808.657-1.465 1.465-1.465.807 0 1.464.657 1.464 1.465v1.465a2.346 2.346 0 0 0 2.344 2.343A2.346 2.346 0 0 0 13.09 7.97Z" fill="#01BBD1"/></svg><svg fill="none" viewBox="0 0 11 11" id="viber" xmlns="http://www.w3.org/2000/svg"><path d="M6.38 1.1H4.62a3.09 3.09 0 0 0-3.08 3.08V5.5c0 1.188.692 2.277 1.76 2.783v1.474c0 .132.164.198.252.099L4.828 8.58H6.38A3.09 3.09 0 0 0 9.46 5.5V4.18A3.09 3.09 0 0 0 6.38 1.1Zm1.154 5.775-.45.44c-.474.462-1.695-.066-2.773-1.166-1.078-1.1-1.55-2.332-1.1-2.794l.44-.44c.165-.165.44-.154.627.011l.638.66c.231.231.132.627-.165.715-.209.066-.352.297-.286.506.11.484.726 1.1 1.188 1.221a.454.454 0 0 0 .517-.275.43.43 0 0 1 .715-.154l.638.66c.176.154.176.429.011.616ZM5.895 3.19c-.044 0-.088 0-.132.011-.077.011-.154-.055-.165-.132-.01-.077.055-.154.132-.165.055-.011.11-.011.165-.011.803 0 1.463.66 1.463 1.463 0 .055 0 .11-.01.165-.012.077-.089.143-.166.132-.077-.011-.143-.088-.132-.165 0-.044.011-.088.011-.132A1.16 1.16 0 0 0 5.895 3.19Zm.88 1.177a.146.146 0 0 1-.143.143.146.146 0 0 1-.143-.143.587.587 0 0 0-.583-.583.146.146 0 0 1-.143-.143c0-.077.066-.143.143-.143a.864.864 0 0 1 .87.869Zm1.122.473a.154.154 0 0 1-.187.11.141.141 0 0 1-.099-.176 1.65 1.65 0 0 0 .044-.407c0-.968-.792-1.76-1.76-1.76h-.132c-.077 0-.154-.055-.154-.132 0-.077.055-.154.132-.154.055 0 .11-.011.154-.011a2.06 2.06 0 0 1 2.002 2.53Z" fill="#fff"/></svg></svg>