<svg width="108" height="46" viewBox="0 0 108 46" fill="none" xmlns="http://www.w3.org/2000/svg">
<mask id="path-1-outside-1_247_975" maskUnits="userSpaceOnUse" x="-1" y="-1" width="110" height="73" fill="black">
<rect fill="white" x="-1" y="-1" width="110" height="73"/>
<path d="M27.24 70.344C18.856 70.344 12.264 67.176 7.464 60.84C2.728 54.44 0.36 45.96 0.36 35.4C0.36 24.84 2.728 16.392 7.464 10.056C12.264 3.656 18.856 0.455996 27.24 0.455996C35.688 0.455996 42.28 3.656 47.016 10.056C51.752 16.392 54.12 24.84 54.12 35.4C54.12 45.96 51.752 54.44 47.016 60.84C42.28 67.176 35.688 70.344 27.24 70.344ZM17.064 51.816C19.368 55.528 22.76 57.384 27.24 57.384C31.72 57.384 35.112 55.496 37.416 51.72C39.784 47.944 40.968 42.504 40.968 35.4C40.968 28.232 39.784 22.76 37.416 18.984C35.112 15.208 31.72 13.32 27.24 13.32C22.76 13.32 19.368 15.208 17.064 18.984C14.76 22.76 13.608 28.232 13.608 35.4C13.608 42.568 14.76 48.04 17.064 51.816ZM92.478 29.064C97.022 30.408 100.702 32.776 103.518 36.168C106.398 39.496 107.838 43.528 107.838 48.264C107.838 55.176 105.502 60.584 100.83 64.488C96.222 68.392 90.558 70.344 83.838 70.344C78.59 70.344 73.886 69.16 69.726 66.792C65.63 64.36 62.654 60.808 60.798 56.136L72.126 49.608C73.79 54.792 77.694 57.384 83.838 57.384C87.23 57.384 89.854 56.584 91.71 54.984C93.63 53.32 94.59 51.08 94.59 48.264C94.59 45.512 93.63 43.304 91.71 41.64C89.854 39.976 87.23 39.144 83.838 39.144H80.958L75.87 31.464L89.118 14.184H62.814V1.8H105.054V12.744L92.478 29.064Z"/>
</mask>
<path d="M7.464 60.84L6.66011 61.4349L6.66691 61.4439L7.464 60.84ZM7.464 10.056L6.664 9.456L6.66303 9.45729L7.464 10.056ZM47.016 10.056L46.2122 10.6508L46.215 10.6547L47.016 10.056ZM47.016 60.84L47.817 61.4387L47.8198 61.4348L47.016 60.84ZM17.064 51.816L16.2103 52.3369L16.2144 52.3434L17.064 51.816ZM37.416 51.72L36.5687 51.1887L36.5624 51.1991L37.416 51.72ZM37.416 18.984L36.5623 19.5049L36.5688 19.5153L37.416 18.984ZM27.24 69.344C19.1491 69.344 12.8603 66.3071 8.26109 60.2361L6.66691 61.4439C11.6677 68.0449 18.5629 71.344 27.24 71.344V69.344ZM8.26784 60.2452C3.69513 54.0658 1.36 45.8153 1.36 35.4H-0.64C-0.64 46.1047 1.76087 54.8142 6.66016 61.4348L8.26784 60.2452ZM1.36 35.4C1.36 24.9841 3.69538 16.7681 8.26497 10.6547L6.66303 9.45729C1.76062 16.0159 -0.64 24.6959 -0.64 35.4H1.36ZM8.264 10.656C12.8648 4.52161 19.1531 1.45599 27.24 1.45599V-0.544006C18.5589 -0.544006 11.6632 2.79038 6.664 9.456L8.264 10.656ZM27.24 1.45599C35.3936 1.45599 41.6778 4.52333 46.2122 10.6508L47.8198 9.46115C42.8822 2.78866 35.9824 -0.544006 27.24 -0.544006V1.45599ZM46.215 10.6547C50.7846 16.7681 53.12 24.9841 53.12 35.4H55.12C55.12 24.6959 52.7194 16.0159 47.817 9.45729L46.215 10.6547ZM53.12 35.4C53.12 45.8153 50.7849 54.0658 46.2122 60.2452L47.8198 61.4348C52.7191 54.8142 55.12 46.1047 55.12 35.4H53.12ZM46.215 60.2413C41.6823 66.3054 35.3976 69.344 27.24 69.344V71.344C35.9784 71.344 42.8777 68.0466 47.817 61.4387L46.215 60.2413ZM16.2144 52.3434C18.7064 56.3582 22.4248 58.384 27.24 58.384V56.384C23.0952 56.384 20.0296 54.6978 17.9136 51.2886L16.2144 52.3434ZM27.24 58.384C32.0631 58.384 35.7812 56.3191 38.2696 52.2409L36.5624 51.1991C34.4428 54.6729 31.3769 56.384 27.24 56.384V58.384ZM38.2632 52.2513C40.7739 48.2477 41.968 42.5903 41.968 35.4H39.968C39.968 42.4176 38.7941 47.6403 36.5688 51.1887L38.2632 52.2513ZM41.968 35.4C41.968 28.1477 40.7746 22.4574 38.2632 18.4527L36.5688 19.5153C38.7934 23.0626 39.968 28.3163 39.968 35.4H41.968ZM38.2696 18.4631C35.7812 14.3849 32.0631 12.32 27.24 12.32V14.32C31.3769 14.32 34.4428 16.0311 36.5624 19.5049L38.2696 18.4631ZM27.24 12.32C22.4169 12.32 18.6988 14.3849 16.2104 18.4631L17.9176 19.5049C20.0372 16.0311 23.1031 14.32 27.24 14.32V12.32ZM16.2104 18.4631C13.7684 22.4652 12.608 28.151 12.608 35.4H14.608C14.608 28.313 15.7516 23.0548 17.9176 19.5049L16.2104 18.4631ZM12.608 35.4C12.608 42.649 13.7684 48.3348 16.2104 52.3369L17.9176 51.2951C15.7516 47.7452 14.608 42.487 14.608 35.4H12.608ZM92.478 29.064L91.6859 28.4536L90.7954 29.6092L92.1944 30.0229L92.478 29.064ZM103.518 36.168L102.749 36.8068L102.755 36.8146L102.762 36.8224L103.518 36.168ZM100.83 64.488L100.189 63.7206L100.184 63.725L100.83 64.488ZM69.726 66.792L69.2155 67.6519L69.2233 67.6565L69.2313 67.6611L69.726 66.792ZM60.798 56.136L60.2987 55.2696L59.5493 55.7014L59.8686 56.5052L60.798 56.136ZM72.126 49.608L73.0781 49.3024L72.6997 48.1233L71.6267 48.7416L72.126 49.608ZM91.71 54.984L92.3629 55.7414L92.3649 55.7397L91.71 54.984ZM91.71 41.64L91.0425 42.3846L91.0487 42.3902L91.0551 42.3957L91.71 41.64ZM80.958 39.144L80.1244 39.6963L80.421 40.144H80.958V39.144ZM75.87 31.464L75.0764 30.8556L74.6424 31.4216L75.0364 32.0163L75.87 31.464ZM89.118 14.184L89.9116 14.7924L91.1447 13.184H89.118V14.184ZM62.814 14.184H61.814V15.184H62.814V14.184ZM62.814 1.8V0.799995H61.814V1.8H62.814ZM105.054 1.8H106.054V0.799995H105.054V1.8ZM105.054 12.744L105.846 13.3544L106.054 13.0846V12.744H105.054ZM92.1944 30.0229C96.5632 31.3151 100.069 33.5788 102.749 36.8068L104.287 35.5292C101.335 31.9732 97.4808 29.5009 92.7616 28.1051L92.1944 30.0229ZM102.762 36.8224C105.472 39.9542 106.838 43.7486 106.838 48.264H108.838C108.838 43.3074 107.324 39.0378 104.274 35.5136L102.762 36.8224ZM106.838 48.264C106.838 54.9247 104.601 60.0337 100.189 63.7206L101.471 65.2554C106.403 61.1343 108.838 55.4274 108.838 48.264H106.838ZM100.184 63.725C95.7768 67.4585 90.3498 69.344 83.838 69.344V71.344C90.7662 71.344 96.6672 69.3255 101.476 65.251L100.184 63.725ZM83.838 69.344C78.7463 69.344 74.2157 68.197 70.2207 65.9229L69.2313 67.6611C73.5563 70.123 78.4337 71.344 83.838 71.344V69.344ZM70.2365 65.9321C66.3415 63.6195 63.5066 60.2456 61.7274 55.7668L59.8686 56.5052C61.8014 61.3704 64.9185 65.1005 69.2155 67.6519L70.2365 65.9321ZM61.2973 57.0024L72.6253 50.4744L71.6267 48.7416L60.2987 55.2696L61.2973 57.0024ZM71.1739 49.9136C72.0634 52.685 73.5782 54.8319 75.7489 56.2731C77.9087 57.7071 80.6295 58.384 83.838 58.384V56.384C80.9025 56.384 78.5993 55.7649 76.8551 54.6069C75.1218 53.4561 73.8526 51.715 73.0781 49.3024L71.1739 49.9136ZM83.838 58.384C87.3778 58.384 90.2662 57.549 92.3629 55.7414L91.0571 54.2266C89.4418 55.619 87.0822 56.384 83.838 56.384V58.384ZM92.3649 55.7397C94.5294 53.8638 95.59 51.3347 95.59 48.264H93.59C93.59 50.8252 92.7306 52.7762 91.0551 54.2283L92.3649 55.7397ZM95.59 48.264C95.59 45.2492 94.5239 42.7554 92.3649 40.8843L91.0551 42.3957C92.7361 43.8526 93.59 45.7748 93.59 48.264H95.59ZM92.3775 40.8954C90.2808 39.0156 87.3867 38.144 83.838 38.144V40.144C87.0733 40.144 89.4272 40.9364 91.0425 42.3846L92.3775 40.8954ZM83.838 38.144H80.958V40.144H83.838V38.144ZM81.7916 38.5917L76.7037 30.9117L75.0364 32.0163L80.1244 39.6963L81.7916 38.5917ZM76.6636 32.0724L89.9116 14.7924L88.3244 13.5756L75.0764 30.8556L76.6636 32.0724ZM89.118 13.184H62.814V15.184H89.118V13.184ZM63.814 14.184V1.8H61.814V14.184H63.814ZM62.814 2.8H105.054V0.799995H62.814V2.8ZM104.054 1.8V12.744H106.054V1.8H104.054ZM104.262 12.1336L91.6859 28.4536L93.2701 29.6744L105.846 13.3544L104.262 12.1336Z" fill="#BAD6EE" mask="url(#path-1-outside-1_247_975)"/>
</svg>
