<svg width="11" height="11" viewBox="0 0 11 11" fill="none" xmlns="http://www.w3.org/2000/svg">
<path d="M6.37906 1.10001H4.61906C2.92506 1.10001 1.53906 2.48601 1.53906 4.18001V5.50001C1.53906 6.68801 2.23206 7.77701 3.29906 8.28301V9.75701C3.29906 9.88901 3.46406 9.95501 3.55206 9.85601L4.82806 8.58001H6.37906C8.07306 8.58001 9.45906 7.19401 9.45906 5.50001V4.18001C9.45906 2.48601 8.07306 1.10001 6.37906 1.10001ZM7.53406 6.87501L7.08306 7.31501C6.61006 7.77701 5.38906 7.24901 4.31106 6.14901C3.23306 5.04901 2.76006 3.81701 3.21106 3.35501L3.65106 2.91501C3.81606 2.75001 4.09106 2.76101 4.27806 2.92601L4.91606 3.58601C5.14706 3.81701 5.04806 4.21301 4.75106 4.30101C4.54206 4.36701 4.39906 4.59801 4.46506 4.80701C4.57506 5.29101 5.19106 5.90701 5.65306 6.02801C5.86206 6.07201 6.09306 5.96201 6.17006 5.75301C6.26906 5.45601 6.66506 5.36801 6.88506 5.59901L7.52306 6.25901C7.69906 6.41301 7.69906 6.68801 7.53406 6.87501ZM5.89506 3.19001C5.85106 3.19001 5.80706 3.19001 5.76306 3.20101C5.68606 3.21201 5.60906 3.14601 5.59806 3.06901C5.58706 2.99201 5.65306 2.91501 5.73006 2.90401C5.78506 2.89301 5.84006 2.89301 5.89506 2.89301C6.69806 2.89301 7.35806 3.55301 7.35806 4.35601C7.35806 4.41101 7.35806 4.46601 7.34706 4.52101C7.33606 4.59801 7.25906 4.66401 7.18206 4.65301C7.10506 4.64201 7.03906 4.56501 7.05006 4.48801C7.05006 4.44401 7.06106 4.40001 7.06106 4.35601C7.07206 3.71801 6.54406 3.19001 5.89506 3.19001ZM6.77506 4.36701C6.77506 4.44401 6.70906 4.51001 6.63206 4.51001C6.55506 4.51001 6.48906 4.44401 6.48906 4.36701C6.48906 4.04801 6.22506 3.78401 5.90606 3.78401C5.82906 3.78401 5.76306 3.71801 5.76306 3.64101C5.76306 3.56401 5.82906 3.49801 5.90606 3.49801C6.37906 3.48701 6.77506 3.88301 6.77506 4.36701ZM7.89706 4.84001C7.87506 4.91701 7.79806 4.97201 7.71006 4.95001C7.63306 4.92801 7.58906 4.85101 7.61106 4.77401C7.64406 4.64201 7.65506 4.51001 7.65506 4.36701C7.65506 3.39901 6.86306 2.60701 5.89506 2.60701C5.85106 2.60701 5.80706 2.60701 5.76306 2.60701C5.68606 2.60701 5.60906 2.55201 5.60906 2.47501C5.60906 2.39801 5.66406 2.32101 5.74106 2.32101C5.79606 2.32101 5.85106 2.31001 5.89506 2.31001C7.02806 2.31001 7.95206 3.23401 7.95206 4.36701C7.95206 4.52101 7.93006 4.68601 7.89706 4.84001Z" fill="#ffffff"/>
</svg>
